# xmcd
#
# Track frame offsets:
#	150
#	15264
#	42109
#	67337
#	89177
#	111887
#	140786
#	172921
#	192793
#	219274
#	238416
#	259258
#
# Disc length: 3700 seconds
#
# Revision: 0
# Processed by: cddbd v1.4PL0 Copyright (c) Steve Scherf et al.
# Submitted via: dBpowerAMP V4.0
#
DISCID=b10e720c
DTITLE=Joe Zook and Blues Deluxe - Still Payin' Dues
DYEAR=2003
DGENRE=Blues
TTITLE0=Comin' Home
TTITLE1=Jersey Blues
TTITLE2=Old Maid Boogie
TTITLE3=Ya Might Hafta Suffa
TTITLE4=S.O.S. (Stuck on Stupid)
TTITLE5=Payin' Dues
TTITLE6=Cherry Red Blues
TTITLE7=GM Jam
TTITLE8=How Long
TTITLE9=Head Start Shuffle
TTITLE10=The Danger Zone
TTITLE11=You Got Nothin' to Say
EXTD=
EXTT0=
EXTT1=
EXTT2=
EXTT3=
EXTT4=
EXTT5=
EXTT6=
EXTT7=
EXTT8=
EXTT9=
EXTT10=
EXTT11=
PLAYORDER=
